General
Format                                   : Flash Video
File size                                : 42.0 MiB
Duration                                 : 10mn 0s
Overall bit rate                         : 588 Kbps
Tagged date                              : UTC 2012-05-22 04:36:08
Tagging application                      : flvtool++Motion project, dweatherford)

Video
Format                                   : AVC
Format/Info                              : Advanced Video Codec
Format profile                           : High@L2.1
Format settings, CABAC                   : Yes
Format settings, ReFrames                : 4 frames
Codec ID                                 : 7
Duration                                 : 9mn 59s
Bit rate                                 : 512 Kbps
Width                                    : 426 pixels
Height                                   : 240 pixels
Display aspect ratio                     : 16:9
Frame rate mode                          : Constant
Frame rate                               : 29.970 fps
Color space                              : YUV
Chroma subsampling                       : 4:2:0
Bit depth                                : 8 bits
Scan type                                : Progressive
Bits/(Pixel*Frame)                       : 0.167
Stream size                              : 36.7 MiB (87%)
Writing library                          : x264 core 119
Encoding settings                        : cabac=1 / ref=2 / deblock=1:0:0 / analyse=0x3:0x113 / me=hex / subme=6 / psy=1 / psy_rd=1.00:0.00 / mixed_ref=0 / me_range=16 / chroma_me=1 / trellis=0 / 8x8dct=1 / cqm=0 / deadzone=21,11 / fast_pskip=1 / chroma_qp_offset=-2 / threads=1 / sliced_threads=0 / nr=0 / decimate=1 / interlaced=0 / bluray_compat=0 / constrained_intra=0 / bframes=16 / b_pyramid=2 / b_adapt=0 / b_bias=0 / direct=2 / weightb=1 / open_gop=0 / weightp=2 / keyint=250 / keyint_min=25 / scenecut=40 / intra_refresh=0 / rc_lookahead=40 / rc=2pass / mbtree=1 / bitrate=512 / ratetol=1.0 / qcomp=0.50 / qpmin=10 / qpmax=51 / qpstep=4 / cplxblur=20.0 / qblur=0.5 / ip_ratio=1.41 / aq=1:1.00

Audio
Format                                   : AAC
Format/Info                              : Advanced Audio Codec
Format profile                           : LC
Codec ID                                 : 10
Duration                                 : 10mn 0s
Bit rate                                 : 64.9 Kbps
Channel(s)                               : 2 channels
Channel positions                        : Front: L R
Sampling rate                            : 48.0 KHz
Compression mode                         : Lossy
Delay relative to video                  : 66ms
Stream size                              : 4.64 MiB (11%)

FULL SCREENSHOT: 
http://bayimg.com/iaNAkaAEB

** GREEk **
Breite me edw: https://thepiratebay.sx/user/GaySubsGR

Min 3exnate na kanete SEED!! ;)